<?xml version="1.0"?>
<svg width="733" height="728.58619" xmlns="http://www.w3.org/2000/svg" xmlns:svg="http://www.w3.org/2000/svg">
 <g class="layer">
  <title>Layer 1</title>
  <path d="m554.43369,173.947248l-3.99878,0l0,-109.54532a63.40186,63.40186 0 0 0 -63.40179,-63.40193l-232.08673,0a63.40187,63.40187 0 0 0 -63.402,63.40171l0,600.97439a63.40188,63.40188 0 0 0 63.40179,63.40192l232.08663,0a63.40187,63.40187 0 0 0 63.402,-63.40167l0,-413.45285l3.99878,0l0.0001,-77.97625z" fill="#e6e6e6" id="svg_14"/>
  <path d="m536.9401,64.844298l0,600.09a47.35072,47.35072 0 0 1 -47.35,47.35l-233.2,0a47.35083,47.35083 0 0 1 -47.35,-47.35l0,-600.09a47.35088,47.35088 0 0 1 47.35,-47.35l28.29,0a22.50659,22.50659 0 0 0 20.83,30.99l132.96,0a22.50674,22.50674 0 0 0 20.83,-30.99l30.29,0a47.35088,47.35088 0 0 1 47.35,47.35z" fill="#fff" id="svg_15"/>
  <path d="m509.28972,352.994098a12.13174,12.13174 0 0 0 -11.39217,-8.01012l-249.81489,0a12.09953,12.09953 0 0 0 -12.10419,12.10418l0,191.70472a12.12136,12.12136 0 0 0 12.10419,12.10422l249.81489,0a12.12135,12.12135 0 0 0 12.10418,-12.10419l0,-191.70474a12.01218,12.01218 0 0 0 -0.71201,-4.09407z" fill="#f2f2f2" id="svg_16"/>
  <path d="m509.28972,112.190958a12.13174,12.13174 0 0 0 -11.39217,-8.01012l-249.81489,0a12.09953,12.09953 0 0 0 -12.10419,12.10418l0,191.70471a12.12136,12.12136 0 0 0 12.10419,12.10419l249.81489,0a12.12135,12.12135 0 0 0 12.10418,-12.10419l0,-191.70471a12.01218,12.01218 0 0 0 -0.71201,-4.09406z" fill="#fff" id="svg_17"/>
  <path d="m509.28972,112.190958a12.13174,12.13174 0 0 0 -11.39217,-8.01012l-249.81489,0a12.09953,12.09953 0 0 0 -12.10419,12.10418l0,191.70471a12.12136,12.12136 0 0 0 12.10419,12.10419l249.81489,0a12.12135,12.12135 0 0 0 12.10418,-12.10419l0,-191.70471a12.01218,12.01218 0 0 0 -0.71201,-4.09406zm-0.712,195.79877a10.69318,10.69318 0 0 1 -10.68016,10.68017l-249.8149,0a10.69318,10.69318 0 0 1 -10.68016,-10.68017l0,-191.70471a10.69318,10.69318 0 0 1 10.68016,-10.68016l249.81489,0a10.69318,10.69318 0 0 1 10.68016,10.68016l0.00001,191.70471z" fill="#3f3d56" id="svg_18"/>
  <path d="m490.73488,129.976578l0,133.86145a3.369,3.369 0 0 1 -3.36792,3.37017l-227.24045,0a2.84118,2.84118 0 0 1 -0.483,-0.03757a3.367,3.367 0 0 1 -2.88717,-3.3326l0,-133.86145a3.369,3.369 0 0 1 3.36788,-3.37014l227.2405,0a3.369,3.369 0 0 1 3.37016,3.36791l0,0.00223z" fill="#e6e6e6" id="svg_19"/>
  <circle cx="314.03704" cy="176.63121" fill="#F7D786" id="svg_20" r="29.566681"/>
  <path d="m406.75484,267.744848l-145.04526,0a2.957,2.957 0 0 1 -0.542,-0.04294l68.59972,-118.8246a4.80319,4.80319 0 0 1 8.361,0l46.039,79.74053l2.20564,3.81559l20.3819,35.31142z" fill="#3f3d56" id="svg_21"/>
  <polygon id="svg_22" opacity="0.2" points="406.7550048828125,267.7449951171875 357.2330017089844,267.7449951171875 381.5429992675781,232.43299865722656 383.2929992675781,229.88999938964844 384.1679992675781,228.6179962158203 386.37298583984375,232.43299865722656 406.7550048828125,267.7449951171875 "/>
  <path d="m487.515,267.744848l-125.45226,0l24.31019,-35.31144l1.74945,-2.54374l31.67835,-46.01757c2.07682,-3.016 7.073,-3.20377 9.51477,-0.56884a5.72644,5.72644 0 0 1 0.45618,0.56884l57.74332,83.87275z" fill="#3f3d56" id="svg_23"/>
  <path d="m444.70513,364.190958a12.13175,12.13175 0 0 0 -11.39217,-8.01012l-249.81489,0a12.0995,12.0995 0 0 0 -12.10419,12.10418l0,191.70471a12.12136,12.12136 0 0 0 12.10419,12.10419l249.81493,0a12.12135,12.12135 0 0 0 12.10418,-12.10419l0,-191.70471a12.01218,12.01218 0 0 0 -0.71205,-4.09406z" fill="#fff" id="svg_24"/>
  <path d="m444.70513,364.190958a12.13175,12.13175 0 0 0 -11.39217,-8.01012l-249.81489,0a12.0995,12.0995 0 0 0 -12.10419,12.10418l0,191.70471a12.12136,12.12136 0 0 0 12.10419,12.10419l249.81493,0a12.12135,12.12135 0 0 0 12.10418,-12.10419l0,-191.70471a12.01218,12.01218 0 0 0 -0.71205,-4.09406zm-0.712,195.79877a10.69318,10.69318 0 0 1 -10.68013,10.68017l-249.81493,0a10.69318,10.69318 0 0 1 -10.68016,-10.68017l0,-191.70471a10.69318,10.69318 0 0 1 10.68016,-10.68016l249.81493,0a10.69318,10.69318 0 0 1 10.68016,10.68016l-0.00003,191.70471z" fill="#3f3d56" id="svg_25"/>
  <path d="m426.15029,381.976578l0,133.86145a3.369,3.369 0 0 1 -3.36792,3.37017l-227.24045,0a2.84118,2.84118 0 0 1 -0.483,-0.03757a3.367,3.367 0 0 1 -2.88717,-3.3326l0,-133.86145a3.369,3.369 0 0 1 3.36788,-3.37014l227.2405,0a3.369,3.369 0 0 1 3.37016,3.36791l0,0.00223z" fill="#e6e6e6" id="svg_26"/>
  <circle cx="249.45245" cy="428.63121" fill="#F7D786" id="svg_27" r="29.566681"/>
  <path d="m342.17025,519.744848l-145.04525,0a2.957,2.957 0 0 1 -0.542,-0.04294l68.59972,-118.8246a4.80319,4.80319 0 0 1 8.361,0l46.039,79.74053l2.20564,3.81559l20.38189,35.31142z" fill="#3f3d56" id="svg_28"/>
  <polygon id="svg_29" opacity="0.2" points="342.1700134277344,519.7449951171875 292.64801025390625,519.7449951171875 316.9580078125,484.4330139160156 318.7080078125,481.8900146484375 319.5830078125,480.6180114746094 321.78900146484375,484.4330139160156 342.1700134277344,519.7449951171875 "/>
  <path d="m422.93038,519.744848l-125.45223,0l24.31019,-35.31144l1.74945,-2.54374l31.67835,-46.01757c2.07682,-3.01595 7.073,-3.20377 9.51476,-0.56884a5.7251,5.7251 0 0 1 0.45619,0.56884l57.74329,83.87275z" fill="#3f3d56" id="svg_30"/>
  <path d="m332.84185,644.586198l-72,0a18.5,18.5 0 0 1 0,-37l72,0a18.5,18.5 0 0 1 0,37z" fill="#F7D786" id="svg_31"/>
  <path d="m475.92193,644.586198l-72,0a18.5,18.5 0 0 1 0,-37l72,0a18.5,18.5 0 0 1 0,37z" fill="#f2f2f2" id="svg_32"/>
 </g>
</svg>